<svg xmlns="http://www.w3.org/2000/svg" xmlns:xlink="http://www.w3.org/1999/xlink" width="2000" zoomAndPan="magnify" viewBox="0 0 1500 1499.999933" height="2000" preserveAspectRatio="xMidYMid meet" version="1.0"><path fill="#1a1a1a" d="M 1500 749.835938 C 1500 789.492188 1497.050781 828.488281 1490.824219 866.835938 C 1434.78125 1225.367188 1124.425781 1500 749.835938 1500 C 726.566406 1500 703.625 1499.015625 681.015625 1497.050781 C 468.648438 1477.714844 281.84375 1369.894531 157.636719 1210.617188 L 749.507812 1210.617188 C 815.054688 1210.617188 876.011719 1199.804688 932.050781 1178.171875 C 988.09375 1156.542969 1036.921875 1126.394531 1078.21875 1087.394531 C 1119.839844 1048.394531 1151.957031 1001.855469 1174.570312 947.78125 C 1197.507812 893.707031 1208.652344 835.042969 1208.652344 770.808594 C 1208.652344 705.921875 1197.179688 646.929688 1174.570312 593.511719 C 1155.234375 547.957031 1128.6875 507.320312 1095.585938 471.925781 C 1089.6875 465.699219 1083.789062 459.800781 1077.5625 453.898438 C 1035.613281 414.574219 986.78125 384.09375 930.742188 363.121094 C 922.875 360.171875 914.683594 357.222656 906.488281 354.597656 L 1428.882812 431.285156 C 1474.4375 527.964844 1500 635.789062 1500 749.835938 Z M 1500 749.835938 " fill-opacity="1" fill-rule="nonzero"/><path fill="#c41c38" d="M 1372.1875 331.332031 L 394.910156 331.332031 L 394.910156 1210.617188 L 157.964844 1210.617188 C 58.992188 1083.460938 0 923.53125 0 749.835938 C 0 335.589844 335.589844 0 749.835938 0 C 1009.066406 0 1237.492188 131.417969 1372.1875 331.332031 Z M 975.964844 626.285156 C 954.007812 586.300781 923.203125 555.824219 883.875 534.191406 C 844.546875 512.5625 798.011719 501.746094 744.921875 501.746094 L 590.5625 501.746094 L 590.5625 1038.5625 L 744.921875 1038.5625 C 798.011719 1038.5625 844.546875 1028.074219 884.53125 1006.773438 C 924.515625 985.46875 954.992188 954.664062 976.621094 914.027344 C 979.570312 908.128906 982.519531 902.554688 985.144531 896.328125 C 1001.203125 859.625 1009.066406 817.347656 1009.066406 769.5 C 1008.738281 714.113281 997.925781 666.265625 975.964844 626.285156 Z M 975.964844 626.285156 " fill-opacity="1" fill-rule="nonzero"/><path fill="#b7000e" d="M 984.816406 896.328125 C 982.195312 902.226562 979.242188 908.128906 976.292969 914.027344 C 954.664062 954.664062 923.859375 985.796875 884.203125 1006.773438 C 844.222656 1028.074219 797.683594 1038.5625 744.59375 1038.5625 L 590.234375 1038.5625 L 590.234375 501.746094 Z M 984.816406 896.328125 " fill-opacity="1" fill-rule="nonzero"/></svg>