<svg xmlns="http://www.w3.org/2000/svg" xmlns:xlink="http://www.w3.org/1999/xlink" width="1719" zoomAndPan="magnify" viewBox="0 0 1289.25 713.999996" height="952" preserveAspectRatio="xMidYMid meet" version="1.0"><defs><g/><clipPath id="dafc48a4a4"><path d="M 457 111 L 880 111 L 880 472.433594 L 457 472.433594 Z M 457 111 " clip-rule="nonzero"/></clipPath><clipPath id="5023e67850"><path d="M 407.886719 0.207031 L 840 0.207031 L 840 382 L 407.886719 382 Z M 407.886719 0.207031 " clip-rule="nonzero"/></clipPath></defs><g clip-path="url(#dafc48a4a4)"><path fill="#1a1a1a" d="M 879.914062 236.167969 C 879.914062 248.648438 878.984375 260.921875 877.027344 272.988281 C 859.390625 385.8125 761.726562 472.234375 643.847656 472.234375 C 636.527344 472.234375 629.308594 471.925781 622.191406 471.304688 C 555.363281 465.222656 496.578125 431.292969 457.492188 381.171875 L 643.746094 381.171875 C 664.371094 381.171875 683.554688 377.765625 701.1875 370.960938 C 718.824219 364.152344 734.191406 354.664062 747.183594 342.394531 C 760.28125 330.121094 770.390625 315.476562 777.503906 298.460938 C 784.722656 281.441406 788.230469 262.984375 788.230469 242.769531 C 788.230469 222.351562 784.621094 203.785156 777.503906 186.976562 C 771.421875 172.640625 763.066406 159.851562 752.652344 148.714844 C 750.792969 146.753906 748.9375 144.898438 746.980469 143.042969 C 733.777344 130.667969 718.410156 121.074219 700.777344 114.476562 C 698.300781 113.546875 695.722656 112.621094 693.144531 111.792969 L 857.535156 135.925781 C 871.871094 166.351562 879.914062 200.28125 879.914062 236.167969 Z M 879.914062 236.167969 " fill-opacity="1" fill-rule="nonzero"/></g><g clip-path="url(#5023e67850)"><path fill="#c41c38" d="M 839.691406 104.472656 L 532.160156 104.472656 L 532.160156 381.171875 L 457.597656 381.171875 C 426.449219 341.15625 407.886719 290.828125 407.886719 236.167969 C 407.886719 105.8125 513.492188 0.207031 643.847656 0.207031 C 725.425781 0.207031 797.304688 41.5625 839.691406 104.472656 Z M 715.007812 197.289062 C 708.097656 184.707031 698.40625 175.117188 686.027344 168.308594 C 673.652344 161.503906 659.007812 158.101562 642.300781 158.101562 L 593.726562 158.101562 L 593.726562 327.027344 L 642.300781 327.027344 C 659.007812 327.027344 673.652344 323.726562 686.234375 317.023438 C 698.816406 310.320312 708.40625 300.625 715.214844 287.835938 C 716.144531 285.980469 717.070312 284.226562 717.894531 282.269531 C 722.949219 270.71875 725.425781 257.414062 725.425781 242.355469 C 725.320312 224.929688 721.917969 209.871094 715.007812 197.289062 Z M 715.007812 197.289062 " fill-opacity="1" fill-rule="nonzero"/></g><path fill="#b7000e" d="M 717.792969 282.269531 C 716.96875 284.125 716.039062 285.980469 715.113281 287.835938 C 708.304688 300.625 698.609375 310.421875 686.132812 317.023438 C 673.550781 323.726562 658.90625 327.027344 642.199219 327.027344 L 593.625 327.027344 L 593.625 158.101562 Z M 717.792969 282.269531 " fill-opacity="1" fill-rule="nonzero"/><g fill="#c41c38" fill-opacity="1"><g transform="translate(366.981812, 617.429667)"><g><path d="M 7.203125 -98.953125 L 35.859375 -98.953125 C 49.609375 -98.953125 61.359375 -94.253906 71.109375 -84.859375 C 80.867188 -75.460938 85.75 -63.6875 85.75 -49.53125 C 85.75 -35.300781 80.890625 -23.488281 71.171875 -14.09375 C 61.460938 -4.695312 49.691406 0 35.859375 0 L 7.203125 0 Z M 29.75 -20.15625 L 33.21875 -20.15625 C 41.457031 -20.15625 48.191406 -22.929688 53.421875 -28.484375 C 58.660156 -34.046875 61.320312 -41.023438 61.40625 -49.421875 C 61.40625 -57.804688 58.785156 -64.796875 53.546875 -70.390625 C 48.316406 -75.992188 41.539062 -78.796875 33.21875 -78.796875 L 29.75 -78.796875 Z M 29.75 -20.15625 "/></g></g></g><g fill="#c41c38" fill-opacity="1"><g transform="translate(459.927784, 617.429667)"><g><path d="M 2.765625 -49.53125 C 2.765625 -63.84375 7.640625 -75.957031 17.390625 -85.875 C 27.140625 -95.789062 38.894531 -100.75 52.65625 -100.75 C 66.488281 -100.75 78.238281 -95.8125 87.90625 -85.9375 C 97.582031 -76.0625 102.421875 -63.925781 102.421875 -49.53125 C 102.421875 -35.0625 97.660156 -22.890625 88.140625 -13.015625 C 78.628906 -3.140625 66.800781 1.796875 52.65625 1.796875 C 38.175781 1.796875 26.238281 -3.097656 16.84375 -12.890625 C 7.457031 -22.679688 2.765625 -34.894531 2.765625 -49.53125 Z M 27.109375 -49.53125 C 27.109375 -44.332031 27.90625 -39.59375 29.5 -35.3125 C 31.101562 -31.039062 33.898438 -27.425781 37.890625 -24.46875 C 41.890625 -21.507812 46.8125 -20.03125 52.65625 -20.03125 C 61.050781 -20.03125 67.382812 -22.90625 71.65625 -28.65625 C 75.9375 -34.414062 78.078125 -41.375 78.078125 -49.53125 C 78.078125 -57.601562 75.894531 -64.535156 71.53125 -70.328125 C 67.175781 -76.128906 60.882812 -79.03125 52.65625 -79.03125 C 44.5 -79.03125 38.203125 -76.128906 33.765625 -70.328125 C 29.328125 -64.535156 27.109375 -57.601562 27.109375 -49.53125 Z M 27.109375 -49.53125 "/></g></g></g><g fill="#c41c38" fill-opacity="1"><g transform="translate(569.54405, 617.429667)"><g><path d="M 7.203125 -98.953125 L 35.859375 -98.953125 C 49.609375 -98.953125 61.359375 -94.253906 71.109375 -84.859375 C 80.867188 -75.460938 85.75 -63.6875 85.75 -49.53125 C 85.75 -35.300781 80.890625 -23.488281 71.171875 -14.09375 C 61.460938 -4.695312 49.691406 0 35.859375 0 L 7.203125 0 Z M 29.75 -20.15625 L 33.21875 -20.15625 C 41.457031 -20.15625 48.191406 -22.929688 53.421875 -28.484375 C 58.660156 -34.046875 61.320312 -41.023438 61.40625 -49.421875 C 61.40625 -57.804688 58.785156 -64.796875 53.546875 -70.390625 C 48.316406 -75.992188 41.539062 -78.796875 33.21875 -78.796875 L 29.75 -78.796875 Z M 29.75 -20.15625 "/></g></g></g><g fill="#1a1a1a" fill-opacity="1"><g transform="translate(662.497388, 617.429667)"><g><path d="M 63.8125 -98.953125 L 63.8125 -79.15625 L 29.75 -79.15625 L 29.75 -59.484375 L 62.375 -59.484375 L 62.375 -39.703125 L 29.75 -39.703125 L 29.75 -19.796875 L 63.8125 -19.796875 L 63.8125 0 L 7.203125 0 L 7.203125 -98.953125 Z M 63.8125 -98.953125 "/></g></g></g><g fill="#1a1a1a" fill-opacity="1"><g transform="translate(736.494374, 617.429667)"><g><path d="M 7.203125 -98.953125 L 42.578125 -98.953125 C 52.085938 -98.953125 59.84375 -96.410156 65.84375 -91.328125 C 71.84375 -86.253906 74.84375 -79 74.84375 -69.5625 C 74.84375 -62.289062 73.019531 -56.191406 69.375 -51.265625 C 65.738281 -46.347656 60.804688 -42.894531 54.578125 -40.90625 L 88.640625 0 L 59.96875 0 L 29.75 -39.09375 L 29.75 0 L 7.203125 0 Z M 29.75 -55.046875 L 32.390625 -55.046875 C 34.460938 -55.046875 36.21875 -55.085938 37.65625 -55.171875 C 39.09375 -55.253906 40.734375 -55.535156 42.578125 -56.015625 C 44.421875 -56.492188 45.898438 -57.171875 47.015625 -58.046875 C 48.128906 -58.929688 49.085938 -60.210938 49.890625 -61.890625 C 50.691406 -63.566406 51.09375 -65.601562 51.09375 -68 C 51.09375 -70.40625 50.691406 -72.445312 49.890625 -74.125 C 49.085938 -75.800781 48.128906 -77.078125 47.015625 -77.953125 C 45.898438 -78.835938 44.421875 -79.519531 42.578125 -80 C 40.734375 -80.476562 39.09375 -80.753906 37.65625 -80.828125 C 36.21875 -80.910156 34.460938 -80.953125 32.390625 -80.953125 L 29.75 -80.953125 Z M 29.75 -55.046875 "/></g></g></g><g fill="#1a1a1a" fill-opacity="1"><g transform="translate(826.801878, 617.429667)"><g><path d="M 57.453125 -98.953125 L 97.390625 0 L 73.15625 0 L 65.84375 -19.796875 L 28.1875 -19.796875 L 20.875 0 L -3.359375 0 L 36.578125 -98.953125 Z M 58.171875 -39.578125 L 47.140625 -68.359375 L 46.890625 -68.359375 L 35.859375 -39.578125 Z M 58.171875 -39.578125 "/></g></g></g><g fill="#909090" fill-opacity="1"><g transform="translate(481.41768, 686.839215)"><g><path d="M 14.921875 0.484375 C 12.328125 0.484375 9.820312 0.113281 7.40625 -0.625 C 5 -1.363281 3.085938 -2.335938 1.671875 -3.546875 L 3.84375 -8.390625 C 5.21875 -7.304688 6.898438 -6.421875 8.890625 -5.734375 C 10.890625 -5.046875 12.898438 -4.703125 14.921875 -4.703125 C 17.410156 -4.703125 19.269531 -5.097656 20.5 -5.890625 C 21.738281 -6.691406 22.359375 -7.75 22.359375 -9.0625 C 22.359375 -10.019531 22.015625 -10.8125 21.328125 -11.4375 C 20.640625 -12.0625 19.765625 -12.550781 18.703125 -12.90625 C 17.648438 -13.257812 16.210938 -13.660156 14.390625 -14.109375 C 11.828125 -14.710938 9.753906 -15.316406 8.171875 -15.921875 C 6.585938 -16.535156 5.226562 -17.488281 4.09375 -18.78125 C 2.96875 -20.070312 2.40625 -21.820312 2.40625 -24.03125 C 2.40625 -25.882812 2.90625 -27.570312 3.90625 -29.09375 C 4.914062 -30.613281 6.4375 -31.820312 8.46875 -32.71875 C 10.5 -33.613281 12.984375 -34.0625 15.921875 -34.0625 C 17.972656 -34.0625 19.988281 -33.800781 21.96875 -33.28125 C 23.945312 -32.769531 25.660156 -32.035156 27.109375 -31.078125 L 25.140625 -26.234375 C 23.660156 -27.097656 22.117188 -27.753906 20.515625 -28.203125 C 18.921875 -28.648438 17.375 -28.875 15.875 -28.875 C 13.414062 -28.875 11.585938 -28.457031 10.390625 -27.625 C 9.191406 -26.800781 8.59375 -25.695312 8.59375 -24.3125 C 8.59375 -23.351562 8.9375 -22.570312 9.625 -21.96875 C 10.3125 -21.363281 11.179688 -20.882812 12.234375 -20.53125 C 13.285156 -20.175781 14.722656 -19.773438 16.546875 -19.328125 C 19.046875 -18.753906 21.09375 -18.15625 22.6875 -17.53125 C 24.289062 -16.90625 25.660156 -15.953125 26.796875 -14.671875 C 27.929688 -13.398438 28.5 -11.675781 28.5 -9.5 C 28.5 -7.644531 27.992188 -5.960938 26.984375 -4.453125 C 25.972656 -2.953125 24.441406 -1.753906 22.390625 -0.859375 C 20.347656 0.0351562 17.859375 0.484375 14.921875 0.484375 Z M 14.921875 0.484375 "/></g></g></g><g fill="#909090" fill-opacity="1"><g transform="translate(516.869002, 686.839215)"><g><path d="M 20.1875 0.484375 C 16.769531 0.484375 13.6875 -0.257812 10.9375 -1.75 C 8.1875 -3.238281 6.023438 -5.300781 4.453125 -7.9375 C 2.890625 -10.570312 2.109375 -13.523438 2.109375 -16.796875 C 2.109375 -20.054688 2.890625 -23.003906 4.453125 -25.640625 C 6.023438 -28.273438 8.1875 -30.335938 10.9375 -31.828125 C 13.6875 -33.316406 16.769531 -34.0625 20.1875 -34.0625 C 23.613281 -34.0625 26.703125 -33.316406 29.453125 -31.828125 C 32.203125 -30.335938 34.359375 -28.28125 35.921875 -25.65625 C 37.492188 -23.039062 38.28125 -20.085938 38.28125 -16.796875 C 38.28125 -13.492188 37.492188 -10.53125 35.921875 -7.90625 C 34.359375 -5.289062 32.203125 -3.238281 29.453125 -1.75 C 26.703125 -0.257812 23.613281 0.484375 20.1875 0.484375 Z M 20.1875 -4.984375 C 22.425781 -4.984375 24.441406 -5.488281 26.234375 -6.5 C 28.023438 -7.507812 29.429688 -8.914062 30.453125 -10.71875 C 31.484375 -12.53125 32 -14.554688 32 -16.796875 C 32 -19.023438 31.484375 -21.039062 30.453125 -22.84375 C 29.429688 -24.65625 28.023438 -26.066406 26.234375 -27.078125 C 24.441406 -28.085938 22.425781 -28.59375 20.1875 -28.59375 C 17.957031 -28.59375 15.945312 -28.085938 14.15625 -27.078125 C 12.363281 -26.066406 10.953125 -24.65625 9.921875 -22.84375 C 8.898438 -21.039062 8.390625 -19.023438 8.390625 -16.796875 C 8.390625 -14.554688 8.898438 -12.53125 9.921875 -10.71875 C 10.953125 -8.914062 12.363281 -7.507812 14.15625 -6.5 C 15.945312 -5.488281 17.957031 -4.984375 20.1875 -4.984375 Z M 20.1875 -4.984375 "/></g></g></g><g fill="#909090" fill-opacity="1"><g transform="translate(562.538359, 686.839215)"><g><path d="M 10.75 -28.34375 L 10.75 -18.125 L 26.953125 -18.125 L 26.953125 -12.859375 L 10.75 -12.859375 L 10.75 0 L 4.515625 0 L 4.515625 -33.578125 L 29.015625 -33.578125 L 29.015625 -28.34375 Z M 10.75 -28.34375 "/></g></g></g><g fill="#909090" fill-opacity="1"><g transform="translate(598.373453, 686.839215)"><g><path d="M 11.328125 -28.296875 L 0.1875 -28.296875 L 0.1875 -33.578125 L 28.6875 -33.578125 L 28.6875 -28.296875 L 17.5625 -28.296875 L 17.5625 0 L 11.328125 0 Z M 11.328125 -28.296875 "/></g></g></g><g fill="#909090" fill-opacity="1"><g transform="translate(632.529531, 686.839215)"><g><path d="M 53.578125 -33.578125 L 42.453125 0 L 35.828125 0 L 27.53125 -24.84375 L 19.09375 0 L 12.421875 0 L 1.296875 -33.578125 L 7.765625 -33.578125 L 16.125 -8.0625 L 24.796875 -33.578125 L 30.5625 -33.578125 L 39.046875 -7.921875 L 47.640625 -33.578125 Z M 53.578125 -33.578125 "/></g></g></g><g fill="#909090" fill-opacity="1"><g transform="translate(692.686439, 686.839215)"><g><path d="M 26.28125 -7.765625 L 9.5 -7.765625 L 6.1875 0 L -0.234375 0 L 14.875 -33.578125 L 21.015625 -33.578125 L 36.171875 0 L 29.640625 0 Z M 24.21875 -12.65625 L 17.890625 -27.34375 L 11.609375 -12.65625 Z M 24.21875 -12.65625 "/></g></g></g><g fill="#909090" fill-opacity="1"><g transform="translate(733.894407, 686.839215)"><g><path d="M 26.484375 0 L 19.625 -9.828125 C 19.332031 -9.796875 18.898438 -9.78125 18.328125 -9.78125 L 10.75 -9.78125 L 10.75 0 L 4.515625 0 L 4.515625 -33.578125 L 18.328125 -33.578125 C 21.234375 -33.578125 23.765625 -33.097656 25.921875 -32.140625 C 28.085938 -31.179688 29.742188 -29.804688 30.890625 -28.015625 C 32.046875 -26.222656 32.625 -24.097656 32.625 -21.640625 C 32.625 -19.109375 32.003906 -16.929688 30.765625 -15.109375 C 29.535156 -13.285156 27.769531 -11.925781 25.46875 -11.03125 L 33.1875 0 Z M 26.328125 -21.640625 C 26.328125 -23.773438 25.625 -25.414062 24.21875 -26.5625 C 22.8125 -27.71875 20.75 -28.296875 18.03125 -28.296875 L 10.75 -28.296875 L 10.75 -14.921875 L 18.03125 -14.921875 C 20.75 -14.921875 22.8125 -15.503906 24.21875 -16.671875 C 25.625 -17.835938 26.328125 -19.492188 26.328125 -21.640625 Z M 26.328125 -21.640625 "/></g></g></g><g fill="#909090" fill-opacity="1"><g transform="translate(774.238871, 686.839215)"><g><path d="M 29.6875 -5.234375 L 29.6875 0 L 4.515625 0 L 4.515625 -33.578125 L 29.015625 -33.578125 L 29.015625 -28.34375 L 10.75 -28.34375 L 10.75 -19.625 L 26.953125 -19.625 L 26.953125 -14.484375 L 10.75 -14.484375 L 10.75 -5.234375 Z M 29.6875 -5.234375 "/></g></g></g></svg>