<svg xmlns="http://www.w3.org/2000/svg" xmlns:xlink="http://www.w3.org/1999/xlink" width="2026" zoomAndPan="magnify" viewBox="0 0 1519.5 545.249983" height="727" preserveAspectRatio="xMidYMid meet" version="1.0"><defs><g/></defs><g fill="#c41c38" fill-opacity="1"><g transform="translate(110.81061, 348.926272)"><g><path d="M 16.859375 -231.703125 L 83.984375 -231.703125 C 116.179688 -231.703125 143.703125 -220.703125 166.546875 -198.703125 C 189.390625 -176.703125 200.8125 -149.132812 200.8125 -116 C 200.8125 -82.664062 189.4375 -55 166.6875 -33 C 143.9375 -11 116.367188 0 83.984375 0 L 16.859375 0 Z M 69.65625 -47.1875 L 77.796875 -47.1875 C 97.085938 -47.1875 112.863281 -53.691406 125.125 -66.703125 C 137.382812 -79.710938 143.609375 -96.050781 143.796875 -115.71875 C 143.796875 -135.375 137.660156 -151.753906 125.390625 -164.859375 C 113.128906 -177.972656 97.265625 -184.53125 77.796875 -184.53125 L 69.65625 -184.53125 Z M 69.65625 -47.1875 "/></g></g></g><g fill="#c41c38" fill-opacity="1"><g transform="translate(328.47957, 348.926272)"><g><path d="M 6.453125 -116 C 6.453125 -149.507812 17.875 -177.875 40.71875 -201.09375 C 63.5625 -224.3125 91.085938 -235.921875 123.296875 -235.921875 C 155.691406 -235.921875 183.21875 -224.359375 205.875 -201.234375 C 228.53125 -178.109375 239.859375 -149.695312 239.859375 -116 C 239.859375 -82.101562 228.71875 -53.59375 206.4375 -30.46875 C 184.15625 -7.34375 156.441406 4.21875 123.296875 4.21875 C 89.410156 4.21875 61.460938 -7.25 39.453125 -30.1875 C 17.453125 -53.125 6.453125 -81.726562 6.453125 -116 Z M 63.46875 -116 C 63.46875 -103.820312 65.335938 -92.722656 69.078125 -82.703125 C 72.828125 -72.691406 79.382812 -64.222656 88.75 -57.296875 C 98.113281 -50.367188 109.628906 -46.90625 123.296875 -46.90625 C 142.953125 -46.90625 157.789062 -53.644531 167.8125 -67.125 C 177.832031 -80.601562 182.84375 -96.894531 182.84375 -116 C 182.84375 -134.90625 177.738281 -151.144531 167.53125 -164.71875 C 157.320312 -178.300781 142.578125 -185.09375 123.296875 -185.09375 C 104.203125 -185.09375 89.457031 -178.300781 79.0625 -164.71875 C 68.664062 -151.144531 63.46875 -134.90625 63.46875 -116 Z M 63.46875 -116 "/></g></g></g><g fill="#c41c38" fill-opacity="1"><g transform="translate(585.188486, 348.926272)"><g><path d="M 16.859375 -231.703125 L 83.984375 -231.703125 C 116.179688 -231.703125 143.703125 -220.703125 166.546875 -198.703125 C 189.390625 -176.703125 200.8125 -149.132812 200.8125 -116 C 200.8125 -82.664062 189.4375 -55 166.6875 -33 C 143.9375 -11 116.367188 0 83.984375 0 L 16.859375 0 Z M 69.65625 -47.1875 L 77.796875 -47.1875 C 97.085938 -47.1875 112.863281 -53.691406 125.125 -66.703125 C 137.382812 -79.710938 143.609375 -96.050781 143.796875 -115.71875 C 143.796875 -135.375 137.660156 -151.753906 125.390625 -164.859375 C 113.128906 -177.972656 97.265625 -184.53125 77.796875 -184.53125 L 69.65625 -184.53125 Z M 69.65625 -47.1875 "/></g></g></g><g fill="#1a1a1a" fill-opacity="1"><g transform="translate(802.85864, 348.926272)"><g><path d="M 149.421875 -231.703125 L 149.421875 -185.375 L 69.65625 -185.375 L 69.65625 -139.3125 L 146.046875 -139.3125 L 146.046875 -92.96875 L 69.65625 -92.96875 L 69.65625 -46.34375 L 149.421875 -46.34375 L 149.421875 0 L 16.859375 0 L 16.859375 -231.703125 Z M 149.421875 -231.703125 "/></g></g></g><g fill="#1a1a1a" fill-opacity="1"><g transform="translate(976.151226, 348.926272)"><g><path d="M 16.859375 -231.703125 L 99.703125 -231.703125 C 121.984375 -231.703125 140.144531 -225.757812 154.1875 -213.875 C 168.226562 -201.988281 175.25 -185 175.25 -162.90625 C 175.25 -145.863281 170.988281 -131.582031 162.46875 -120.0625 C 153.957031 -108.550781 142.398438 -100.453125 127.796875 -95.765625 L 207.5625 0 L 140.4375 0 L 69.65625 -91.5625 L 69.65625 0 L 16.859375 0 Z M 69.65625 -128.921875 L 75.828125 -128.921875 C 80.703125 -128.921875 84.820312 -129.007812 88.1875 -129.1875 C 91.5625 -129.375 95.398438 -130.03125 99.703125 -131.15625 C 104.015625 -132.28125 107.476562 -133.875 110.09375 -135.9375 C 112.71875 -138 114.960938 -140.992188 116.828125 -144.921875 C 118.703125 -148.859375 119.640625 -153.632812 119.640625 -159.25 C 119.640625 -164.863281 118.703125 -169.632812 116.828125 -173.5625 C 114.960938 -177.5 112.71875 -180.492188 110.09375 -182.546875 C 107.476562 -184.609375 104.015625 -186.203125 99.703125 -187.328125 C 95.398438 -188.453125 91.5625 -189.109375 88.1875 -189.296875 C 84.820312 -189.484375 80.703125 -189.578125 75.828125 -189.578125 L 69.65625 -189.578125 Z M 69.65625 -128.921875 "/></g></g></g><g fill="#1a1a1a" fill-opacity="1"><g transform="translate(1187.64123, 348.926272)"><g><path d="M 134.53125 -231.703125 L 228.0625 0 L 171.328125 0 L 154.1875 -46.34375 L 66 -46.34375 L 48.875 0 L -7.859375 0 L 85.65625 -231.703125 Z M 136.21875 -92.6875 L 110.375 -160.09375 L 109.8125 -160.09375 L 83.984375 -92.6875 Z M 136.21875 -92.6875 "/></g></g></g><g fill="#c41c38" fill-opacity="1"><g transform="translate(110.81061, 348.926272)"><g><path d="M 16.859375 -231.703125 L 83.984375 -231.703125 C 116.179688 -231.703125 143.703125 -220.703125 166.546875 -198.703125 C 189.390625 -176.703125 200.8125 -149.132812 200.8125 -116 C 200.8125 -82.664062 189.4375 -55 166.6875 -33 C 143.9375 -11 116.367188 0 83.984375 0 L 16.859375 0 Z M 69.65625 -47.1875 L 77.796875 -47.1875 C 97.085938 -47.1875 112.863281 -53.691406 125.125 -66.703125 C 137.382812 -79.710938 143.609375 -96.050781 143.796875 -115.71875 C 143.796875 -135.375 137.660156 -151.753906 125.390625 -164.859375 C 113.128906 -177.972656 97.265625 -184.53125 77.796875 -184.53125 L 69.65625 -184.53125 Z M 69.65625 -47.1875 "/></g></g></g><g fill="#c41c38" fill-opacity="1"><g transform="translate(328.47957, 348.926272)"><g><path d="M 6.453125 -116 C 6.453125 -149.507812 17.875 -177.875 40.71875 -201.09375 C 63.5625 -224.3125 91.085938 -235.921875 123.296875 -235.921875 C 155.691406 -235.921875 183.21875 -224.359375 205.875 -201.234375 C 228.53125 -178.109375 239.859375 -149.695312 239.859375 -116 C 239.859375 -82.101562 228.71875 -53.59375 206.4375 -30.46875 C 184.15625 -7.34375 156.441406 4.21875 123.296875 4.21875 C 89.410156 4.21875 61.460938 -7.25 39.453125 -30.1875 C 17.453125 -53.125 6.453125 -81.726562 6.453125 -116 Z M 63.46875 -116 C 63.46875 -103.820312 65.335938 -92.722656 69.078125 -82.703125 C 72.828125 -72.691406 79.382812 -64.222656 88.75 -57.296875 C 98.113281 -50.367188 109.628906 -46.90625 123.296875 -46.90625 C 142.953125 -46.90625 157.789062 -53.644531 167.8125 -67.125 C 177.832031 -80.601562 182.84375 -96.894531 182.84375 -116 C 182.84375 -134.90625 177.738281 -151.144531 167.53125 -164.71875 C 157.320312 -178.300781 142.578125 -185.09375 123.296875 -185.09375 C 104.203125 -185.09375 89.457031 -178.300781 79.0625 -164.71875 C 68.664062 -151.144531 63.46875 -134.90625 63.46875 -116 Z M 63.46875 -116 "/></g></g></g><g fill="#c41c38" fill-opacity="1"><g transform="translate(585.188486, 348.926272)"><g><path d="M 16.859375 -231.703125 L 83.984375 -231.703125 C 116.179688 -231.703125 143.703125 -220.703125 166.546875 -198.703125 C 189.390625 -176.703125 200.8125 -149.132812 200.8125 -116 C 200.8125 -82.664062 189.4375 -55 166.6875 -33 C 143.9375 -11 116.367188 0 83.984375 0 L 16.859375 0 Z M 69.65625 -47.1875 L 77.796875 -47.1875 C 97.085938 -47.1875 112.863281 -53.691406 125.125 -66.703125 C 137.382812 -79.710938 143.609375 -96.050781 143.796875 -115.71875 C 143.796875 -135.375 137.660156 -151.753906 125.390625 -164.859375 C 113.128906 -177.972656 97.265625 -184.53125 77.796875 -184.53125 L 69.65625 -184.53125 Z M 69.65625 -47.1875 "/></g></g></g><g fill="#1a1a1a" fill-opacity="1"><g transform="translate(802.85864, 348.926272)"><g><path d="M 149.421875 -231.703125 L 149.421875 -185.375 L 69.65625 -185.375 L 69.65625 -139.3125 L 146.046875 -139.3125 L 146.046875 -92.96875 L 69.65625 -92.96875 L 69.65625 -46.34375 L 149.421875 -46.34375 L 149.421875 0 L 16.859375 0 L 16.859375 -231.703125 Z M 149.421875 -231.703125 "/></g></g></g><g fill="#1a1a1a" fill-opacity="1"><g transform="translate(976.151226, 348.926272)"><g><path d="M 16.859375 -231.703125 L 99.703125 -231.703125 C 121.984375 -231.703125 140.144531 -225.757812 154.1875 -213.875 C 168.226562 -201.988281 175.25 -185 175.25 -162.90625 C 175.25 -145.863281 170.988281 -131.582031 162.46875 -120.0625 C 153.957031 -108.550781 142.398438 -100.453125 127.796875 -95.765625 L 207.5625 0 L 140.4375 0 L 69.65625 -91.5625 L 69.65625 0 L 16.859375 0 Z M 69.65625 -128.921875 L 75.828125 -128.921875 C 80.703125 -128.921875 84.820312 -129.007812 88.1875 -129.1875 C 91.5625 -129.375 95.398438 -130.03125 99.703125 -131.15625 C 104.015625 -132.28125 107.476562 -133.875 110.09375 -135.9375 C 112.71875 -138 114.960938 -140.992188 116.828125 -144.921875 C 118.703125 -148.859375 119.640625 -153.632812 119.640625 -159.25 C 119.640625 -164.863281 118.703125 -169.632812 116.828125 -173.5625 C 114.960938 -177.5 112.71875 -180.492188 110.09375 -182.546875 C 107.476562 -184.609375 104.015625 -186.203125 99.703125 -187.328125 C 95.398438 -188.453125 91.5625 -189.109375 88.1875 -189.296875 C 84.820312 -189.484375 80.703125 -189.578125 75.828125 -189.578125 L 69.65625 -189.578125 Z M 69.65625 -128.921875 "/></g></g></g><g fill="#1a1a1a" fill-opacity="1"><g transform="translate(1187.64123, 348.926272)"><g><path d="M 134.53125 -231.703125 L 228.0625 0 L 171.328125 0 L 154.1875 -46.34375 L 66 -46.34375 L 48.875 0 L -7.859375 0 L 85.65625 -231.703125 Z M 136.21875 -92.6875 L 110.375 -160.09375 L 109.8125 -160.09375 L 83.984375 -92.6875 Z M 136.21875 -92.6875 "/></g></g></g></svg>