<svg xmlns="http://www.w3.org/2000/svg" xmlns:xlink="http://www.w3.org/1999/xlink" width="1631" zoomAndPan="magnify" viewBox="0 0 1223.25 317.249999" height="423" preserveAspectRatio="xMidYMid meet" version="1.0"><defs><g/><clipPath id="c4eb99c5ba"><rect x="0" width="748" y="0" height="202"/></clipPath><clipPath id="dc237dee0a"><path d="M 30 65 L 277.164062 65 L 277.164062 276 L 30 276 Z M 30 65 " clip-rule="nonzero"/></clipPath><clipPath id="af4de75472"><path d="M 1.070312 0 L 254 0 L 254 223 L 1.070312 223 Z M 1.070312 0 " clip-rule="nonzero"/></clipPath></defs><g transform="matrix(1, 0, 0, 1, 348, 60)"><g clip-path="url(#c4eb99c5ba)"><g fill="#c41c38" fill-opacity="1"><g transform="translate(0.877048, 144.420773)"><g><path d="M 9.625 -132.34375 L 47.96875 -132.34375 C 66.363281 -132.34375 82.082031 -126.0625 95.125 -113.5 C 108.175781 -100.9375 114.703125 -85.1875 114.703125 -66.25 C 114.703125 -47.21875 108.203125 -31.414062 95.203125 -18.84375 C 82.210938 -6.28125 66.46875 0 47.96875 0 L 9.625 0 Z M 39.78125 -26.953125 L 44.4375 -26.953125 C 55.445312 -26.953125 64.453125 -30.664062 71.453125 -38.09375 C 78.460938 -45.53125 82.023438 -54.863281 82.140625 -66.09375 C 82.140625 -77.320312 78.632812 -86.675781 71.625 -94.15625 C 64.625 -101.644531 55.5625 -105.390625 44.4375 -105.390625 L 39.78125 -105.390625 Z M 39.78125 -26.953125 "/></g></g></g><g fill="#c41c38" fill-opacity="1"><g transform="translate(125.205078, 144.420773)"><g><path d="M 3.6875 -66.25 C 3.6875 -85.394531 10.207031 -101.597656 23.25 -114.859375 C 36.300781 -128.117188 52.023438 -134.75 70.421875 -134.75 C 88.921875 -134.75 104.640625 -128.144531 117.578125 -114.9375 C 130.523438 -101.726562 137 -85.5 137 -66.25 C 137 -46.894531 130.632812 -30.613281 117.90625 -17.40625 C 105.175781 -4.195312 89.347656 2.40625 70.421875 2.40625 C 51.066406 2.40625 35.101562 -4.140625 22.53125 -17.234375 C 9.96875 -30.335938 3.6875 -46.675781 3.6875 -66.25 Z M 36.25 -66.25 C 36.25 -59.300781 37.316406 -52.960938 39.453125 -47.234375 C 41.597656 -41.515625 45.34375 -36.675781 50.6875 -32.71875 C 56.039062 -28.769531 62.617188 -26.796875 70.421875 -26.796875 C 81.648438 -26.796875 90.125 -30.644531 95.84375 -38.34375 C 101.570312 -46.039062 104.4375 -55.34375 104.4375 -66.25 C 104.4375 -77.050781 101.519531 -86.328125 95.6875 -94.078125 C 89.863281 -101.835938 81.441406 -105.71875 70.421875 -105.71875 C 59.515625 -105.71875 51.09375 -101.835938 45.15625 -94.078125 C 39.21875 -86.328125 36.25 -77.050781 36.25 -66.25 Z M 36.25 -66.25 "/></g></g></g><g fill="#c41c38" fill-opacity="1"><g transform="translate(271.83193, 144.420773)"><g><path d="M 9.625 -132.34375 L 47.96875 -132.34375 C 66.363281 -132.34375 82.082031 -126.0625 95.125 -113.5 C 108.175781 -100.9375 114.703125 -85.1875 114.703125 -66.25 C 114.703125 -47.21875 108.203125 -31.414062 95.203125 -18.84375 C 82.210938 -6.28125 66.46875 0 47.96875 0 L 9.625 0 Z M 39.78125 -26.953125 L 44.4375 -26.953125 C 55.445312 -26.953125 64.453125 -30.664062 71.453125 -38.09375 C 78.460938 -45.53125 82.023438 -54.863281 82.140625 -66.09375 C 82.140625 -77.320312 78.632812 -86.675781 71.625 -94.15625 C 64.625 -101.644531 55.5625 -105.390625 44.4375 -105.390625 L 39.78125 -105.390625 Z M 39.78125 -26.953125 "/></g></g></g><g fill="#1a1a1a" fill-opacity="1"><g transform="translate(396.161095, 144.420773)"><g><path d="M 85.34375 -132.34375 L 85.34375 -105.875 L 39.78125 -105.875 L 39.78125 -79.5625 L 83.421875 -79.5625 L 83.421875 -53.09375 L 39.78125 -53.09375 L 39.78125 -26.46875 L 85.34375 -26.46875 L 85.34375 0 L 9.625 0 L 9.625 -132.34375 Z M 85.34375 -132.34375 "/></g></g></g><g fill="#1a1a1a" fill-opacity="1"><g transform="translate(495.142244, 144.420773)"><g><path d="M 9.625 -132.34375 L 56.953125 -132.34375 C 69.679688 -132.34375 80.054688 -128.945312 88.078125 -122.15625 C 96.097656 -115.363281 100.109375 -105.660156 100.109375 -93.046875 C 100.109375 -83.316406 97.671875 -75.160156 92.796875 -68.578125 C 87.929688 -62.003906 81.328125 -57.378906 72.984375 -54.703125 L 118.546875 0 L 80.203125 0 L 39.78125 -52.296875 L 39.78125 0 L 9.625 0 Z M 39.78125 -73.640625 L 43.3125 -73.640625 C 46.09375 -73.640625 48.445312 -73.691406 50.375 -73.796875 C 52.300781 -73.898438 54.492188 -74.269531 56.953125 -74.90625 C 59.410156 -75.550781 61.382812 -76.460938 62.875 -77.640625 C 64.375 -78.816406 65.660156 -80.523438 66.734375 -82.765625 C 67.804688 -85.015625 68.34375 -87.742188 68.34375 -90.953125 C 68.34375 -94.160156 67.804688 -96.890625 66.734375 -99.140625 C 65.660156 -101.390625 64.375 -103.097656 62.875 -104.265625 C 61.382812 -105.441406 59.410156 -106.351562 56.953125 -107 C 54.492188 -107.644531 52.300781 -108.019531 50.375 -108.125 C 48.445312 -108.226562 46.09375 -108.28125 43.3125 -108.28125 L 39.78125 -108.28125 Z M 39.78125 -73.640625 "/></g></g></g><g fill="#1a1a1a" fill-opacity="1"><g transform="translate(615.940954, 144.420773)"><g><path d="M 76.84375 -132.34375 L 130.265625 0 L 97.859375 0 L 88.078125 -26.46875 L 37.703125 -26.46875 L 27.90625 0 L -4.484375 0 L 48.921875 -132.34375 Z M 77.796875 -52.9375 L 63.046875 -91.4375 L 62.71875 -91.4375 L 47.96875 -52.9375 Z M 77.796875 -52.9375 "/></g></g></g></g></g><g clip-path="url(#dc237dee0a)"><path fill="#1a1a1a" d="M 277.027344 137.949219 C 277.027344 145.242188 276.484375 152.417969 275.335938 159.472656 C 265.027344 225.433594 207.929688 275.957031 139.015625 275.957031 C 134.734375 275.957031 130.515625 275.777344 126.355469 275.414062 C 87.285156 271.855469 52.917969 252.019531 30.070312 222.71875 L 138.957031 222.71875 C 151.015625 222.71875 162.230469 220.730469 172.539062 216.75 C 182.847656 212.769531 191.832031 207.222656 199.429688 200.050781 C 207.085938 192.875 212.996094 184.3125 217.15625 174.363281 C 221.375 164.417969 223.425781 153.625 223.425781 141.808594 C 223.425781 129.871094 221.316406 119.015625 217.15625 109.1875 C 213.597656 100.808594 208.714844 93.332031 202.625 86.820312 C 201.539062 85.675781 200.453125 84.589844 199.308594 83.503906 C 191.589844 76.269531 182.609375 70.664062 172.296875 66.804688 C 170.851562 66.261719 169.34375 65.71875 167.835938 65.234375 L 263.941406 79.34375 C 272.324219 97.128906 277.027344 116.964844 277.027344 137.949219 Z M 277.027344 137.949219 " fill-opacity="1" fill-rule="nonzero"/></g><g clip-path="url(#af4de75472)"><path fill="#c41c38" d="M 253.511719 60.957031 L 73.71875 60.957031 L 73.71875 222.71875 L 30.128906 222.71875 C 11.921875 199.324219 1.070312 169.902344 1.070312 137.949219 C 1.070312 61.738281 62.808594 0 139.015625 0 C 186.707031 0 228.730469 24.175781 253.511719 60.957031 Z M 180.617188 115.21875 C 176.578125 107.863281 170.910156 102.253906 163.675781 98.277344 C 156.441406 94.296875 147.878906 92.308594 138.113281 92.308594 L 109.714844 92.308594 L 109.714844 191.066406 L 138.113281 191.066406 C 147.878906 191.066406 156.441406 189.136719 163.796875 185.21875 C 171.152344 181.296875 176.757812 175.632812 180.738281 168.15625 C 181.28125 167.070312 181.824219 166.042969 182.304688 164.898438 C 185.261719 158.144531 186.707031 150.367188 186.707031 141.566406 C 186.648438 131.375 184.65625 122.574219 180.617188 115.21875 Z M 180.617188 115.21875 " fill-opacity="1" fill-rule="nonzero"/></g><path fill="#b7000e" d="M 182.246094 164.898438 C 181.765625 165.984375 181.222656 167.070312 180.679688 168.15625 C 176.699219 175.632812 171.03125 181.359375 163.738281 185.21875 C 156.382812 189.136719 147.820312 191.066406 138.050781 191.066406 L 109.65625 191.066406 L 109.65625 92.308594 Z M 182.246094 164.898438 " fill-opacity="1" fill-rule="nonzero"/></svg>