<svg xmlns="http://www.w3.org/2000/svg" xmlns:xlink="http://www.w3.org/1999/xlink" width="1214" zoomAndPan="magnify" viewBox="0 0 910.5 350.999992" height="468" preserveAspectRatio="xMidYMid meet" version="1.0"><defs><g/></defs><g fill="#c41c38" fill-opacity="1"><g transform="translate(66.9968, 207.924179)"><g><path d="M 10.078125 -138.515625 L 50.203125 -138.515625 C 69.453125 -138.515625 85.90625 -131.9375 99.5625 -118.78125 C 113.21875 -105.632812 120.046875 -89.15625 120.046875 -69.34375 C 120.046875 -49.414062 113.242188 -32.875 99.640625 -19.71875 C 86.046875 -6.570312 69.566406 0 50.203125 0 L 10.078125 0 Z M 41.640625 -28.203125 L 46.515625 -28.203125 C 58.035156 -28.203125 67.460938 -32.09375 74.796875 -39.875 C 82.128906 -47.65625 85.851562 -57.421875 85.96875 -69.171875 C 85.96875 -80.929688 82.300781 -90.726562 74.96875 -98.5625 C 67.632812 -106.394531 58.148438 -110.3125 46.515625 -110.3125 L 41.640625 -110.3125 Z M 41.640625 -28.203125 "/></g></g></g><g fill="#c41c38" fill-opacity="1"><g transform="translate(197.125319, 207.924179)"><g><path d="M 3.859375 -69.34375 C 3.859375 -89.382812 10.6875 -106.34375 24.34375 -120.21875 C 38 -134.101562 54.453125 -141.046875 73.703125 -141.046875 C 93.078125 -141.046875 109.535156 -134.128906 123.078125 -120.296875 C 136.617188 -106.472656 143.390625 -89.488281 143.390625 -69.34375 C 143.390625 -49.082031 136.726562 -32.039062 123.40625 -18.21875 C 110.09375 -4.394531 93.523438 2.515625 73.703125 2.515625 C 53.441406 2.515625 36.734375 -4.335938 23.578125 -18.046875 C 10.429688 -31.765625 3.859375 -48.863281 3.859375 -69.34375 Z M 37.953125 -69.34375 C 37.953125 -62.070312 39.066406 -55.441406 41.296875 -49.453125 C 43.535156 -43.460938 47.453125 -38.394531 53.046875 -34.25 C 58.648438 -30.113281 65.535156 -28.046875 73.703125 -28.046875 C 85.460938 -28.046875 94.335938 -32.070312 100.328125 -40.125 C 106.316406 -48.1875 109.3125 -57.925781 109.3125 -69.34375 C 109.3125 -80.644531 106.257812 -90.351562 100.15625 -98.46875 C 94.050781 -106.59375 85.234375 -110.65625 73.703125 -110.65625 C 62.285156 -110.65625 53.472656 -106.59375 47.265625 -98.46875 C 41.054688 -90.351562 37.953125 -80.644531 37.953125 -69.34375 Z M 37.953125 -69.34375 "/></g></g></g><g fill="#c41c38" fill-opacity="1"><g transform="translate(350.593006, 207.924179)"><g><path d="M 10.078125 -138.515625 L 50.203125 -138.515625 C 69.453125 -138.515625 85.90625 -131.9375 99.5625 -118.78125 C 113.21875 -105.632812 120.046875 -89.15625 120.046875 -69.34375 C 120.046875 -49.414062 113.242188 -32.875 99.640625 -19.71875 C 86.046875 -6.570312 69.566406 0 50.203125 0 L 10.078125 0 Z M 41.640625 -28.203125 L 46.515625 -28.203125 C 58.035156 -28.203125 67.460938 -32.09375 74.796875 -39.875 C 82.128906 -47.65625 85.851562 -57.421875 85.96875 -69.171875 C 85.96875 -80.929688 82.300781 -90.726562 74.96875 -98.5625 C 67.632812 -106.394531 58.148438 -110.3125 46.515625 -110.3125 L 41.640625 -110.3125 Z M 41.640625 -28.203125 "/></g></g></g><g fill="#1a1a1a" fill-opacity="1"><g transform="translate(480.722714, 207.924179)"><g><path d="M 89.328125 -138.515625 L 89.328125 -110.8125 L 41.640625 -110.8125 L 41.640625 -83.28125 L 87.3125 -83.28125 L 87.3125 -55.578125 L 41.640625 -55.578125 L 41.640625 -27.703125 L 89.328125 -27.703125 L 89.328125 0 L 10.078125 0 L 10.078125 -138.515625 Z M 89.328125 -138.515625 "/></g></g></g><g fill="#1a1a1a" fill-opacity="1"><g transform="translate(584.321801, 207.924179)"><g><path d="M 10.078125 -138.515625 L 59.609375 -138.515625 C 72.929688 -138.515625 83.789062 -134.960938 92.1875 -127.859375 C 100.582031 -120.753906 104.78125 -110.597656 104.78125 -97.390625 C 104.78125 -87.203125 102.234375 -78.664062 97.140625 -71.78125 C 92.046875 -64.894531 85.128906 -60.050781 76.390625 -57.25 L 124.078125 0 L 83.953125 0 L 41.640625 -54.734375 L 41.640625 0 L 10.078125 0 Z M 41.640625 -77.0625 L 45.328125 -77.0625 C 48.242188 -77.0625 50.707031 -77.117188 52.71875 -77.234375 C 54.738281 -77.347656 57.035156 -77.738281 59.609375 -78.40625 C 62.179688 -79.082031 64.25 -80.035156 65.8125 -81.265625 C 67.382812 -82.492188 68.726562 -84.285156 69.84375 -86.640625 C 70.96875 -88.992188 71.53125 -91.847656 71.53125 -95.203125 C 71.53125 -98.554688 70.96875 -101.410156 69.84375 -103.765625 C 68.726562 -106.117188 67.382812 -107.910156 65.8125 -109.140625 C 64.25 -110.367188 62.179688 -111.316406 59.609375 -111.984375 C 57.035156 -112.660156 54.738281 -113.054688 52.71875 -113.171875 C 50.707031 -113.285156 48.242188 -113.34375 45.328125 -113.34375 L 41.640625 -113.34375 Z M 41.640625 -77.0625 "/></g></g></g><g fill="#1a1a1a" fill-opacity="1"><g transform="translate(710.756342, 207.924179)"><g><path d="M 80.421875 -138.515625 L 136.34375 0 L 102.421875 0 L 92.1875 -27.703125 L 39.453125 -27.703125 L 29.21875 0 L -4.703125 0 L 51.21875 -138.515625 Z M 81.4375 -55.40625 L 65.984375 -95.703125 L 65.65625 -95.703125 L 50.203125 -55.40625 Z M 81.4375 -55.40625 "/></g></g></g><g fill="#909090" fill-opacity="1"><g transform="translate(224.530588, 314.065945)"><g><path d="M 21.140625 0.671875 C 17.460938 0.671875 13.914062 0.148438 10.5 -0.890625 C 7.082031 -1.929688 4.375 -3.3125 2.375 -5.03125 L 5.4375 -11.890625 C 7.382812 -10.347656 9.773438 -9.085938 12.609375 -8.109375 C 15.441406 -7.140625 18.285156 -6.65625 21.140625 -6.65625 C 24.671875 -6.65625 27.304688 -7.222656 29.046875 -8.359375 C 30.796875 -9.492188 31.671875 -10.988281 31.671875 -12.84375 C 31.671875 -14.195312 31.179688 -15.316406 30.203125 -16.203125 C 29.234375 -17.085938 28 -17.78125 26.5 -18.28125 C 25.007812 -18.78125 22.972656 -19.347656 20.390625 -19.984375 C 16.765625 -20.835938 13.828125 -21.691406 11.578125 -22.546875 C 9.335938 -23.410156 7.410156 -24.757812 5.796875 -26.59375 C 4.191406 -28.4375 3.390625 -30.921875 3.390625 -34.046875 C 3.390625 -36.671875 4.101562 -39.054688 5.53125 -41.203125 C 6.957031 -43.359375 9.109375 -45.070312 11.984375 -46.34375 C 14.867188 -47.613281 18.394531 -48.25 22.5625 -48.25 C 25.457031 -48.25 28.304688 -47.882812 31.109375 -47.15625 C 33.921875 -46.4375 36.347656 -45.394531 38.390625 -44.03125 L 35.609375 -37.171875 C 33.523438 -38.390625 31.347656 -39.316406 29.078125 -39.953125 C 26.816406 -40.585938 24.625 -40.90625 22.5 -40.90625 C 19.007812 -40.90625 16.410156 -40.316406 14.703125 -39.140625 C 13.003906 -37.960938 12.15625 -36.398438 12.15625 -34.453125 C 12.15625 -33.085938 12.640625 -31.972656 13.609375 -31.109375 C 14.585938 -30.253906 15.828125 -29.578125 17.328125 -29.078125 C 18.828125 -28.585938 20.863281 -28.023438 23.4375 -27.390625 C 26.976562 -26.566406 29.878906 -25.710938 32.140625 -24.828125 C 34.410156 -23.953125 36.347656 -22.609375 37.953125 -20.796875 C 39.554688 -18.984375 40.359375 -16.535156 40.359375 -13.453125 C 40.359375 -10.828125 39.644531 -8.445312 38.21875 -6.3125 C 36.789062 -4.1875 34.628906 -2.488281 31.734375 -1.21875 C 28.835938 0.0390625 25.304688 0.671875 21.140625 0.671875 Z M 21.140625 0.671875 "/></g></g></g><g fill="#909090" fill-opacity="1"><g transform="translate(274.750146, 314.065945)"><g><path d="M 28.609375 0.671875 C 23.765625 0.671875 19.394531 -0.378906 15.5 -2.484375 C 11.601562 -4.585938 8.539062 -7.507812 6.3125 -11.25 C 4.09375 -14.988281 2.984375 -19.164062 2.984375 -23.78125 C 2.984375 -28.40625 4.09375 -32.582031 6.3125 -36.3125 C 8.539062 -40.050781 11.601562 -42.972656 15.5 -45.078125 C 19.394531 -47.191406 23.765625 -48.25 28.609375 -48.25 C 33.453125 -48.25 37.820312 -47.191406 41.71875 -45.078125 C 45.613281 -42.972656 48.671875 -40.0625 50.890625 -36.34375 C 53.117188 -32.632812 54.234375 -28.445312 54.234375 -23.78125 C 54.234375 -19.113281 53.117188 -14.921875 50.890625 -11.203125 C 48.671875 -7.492188 45.613281 -4.585938 41.71875 -2.484375 C 37.820312 -0.378906 33.453125 0.671875 28.609375 0.671875 Z M 28.609375 -7.0625 C 31.773438 -7.0625 34.625 -7.773438 37.15625 -9.203125 C 39.695312 -10.628906 41.691406 -12.625 43.140625 -15.1875 C 44.597656 -17.75 45.328125 -20.613281 45.328125 -23.78125 C 45.328125 -26.957031 44.597656 -29.820312 43.140625 -32.375 C 41.691406 -34.9375 39.695312 -36.929688 37.15625 -38.359375 C 34.625 -39.785156 31.773438 -40.5 28.609375 -40.5 C 25.429688 -40.5 22.570312 -39.785156 20.03125 -38.359375 C 17.5 -36.929688 15.507812 -34.9375 14.0625 -32.375 C 12.613281 -29.820312 11.890625 -26.957031 11.890625 -23.78125 C 11.890625 -20.613281 12.613281 -17.75 14.0625 -15.1875 C 15.507812 -12.625 17.5 -10.628906 20.03125 -9.203125 C 22.570312 -7.773438 25.429688 -7.0625 28.609375 -7.0625 Z M 28.609375 -7.0625 "/></g></g></g><g fill="#909090" fill-opacity="1"><g transform="translate(339.444105, 314.065945)"><g><path d="M 15.21875 -40.15625 L 15.21875 -25.6875 L 38.1875 -25.6875 L 38.1875 -18.21875 L 15.21875 -18.21875 L 15.21875 0 L 6.390625 0 L 6.390625 -47.5625 L 41.109375 -47.5625 L 41.109375 -40.15625 Z M 15.21875 -40.15625 "/></g></g></g><g fill="#909090" fill-opacity="1"><g transform="translate(390.207303, 314.065945)"><g><path d="M 16.03125 -40.09375 L 0.265625 -40.09375 L 0.265625 -47.5625 L 40.640625 -47.5625 L 40.640625 -40.09375 L 24.875 -40.09375 L 24.875 0 L 16.03125 0 Z M 16.03125 -40.09375 "/></g></g></g><g fill="#909090" fill-opacity="1"><g transform="translate(438.592089, 314.065945)"><g><path d="M 75.90625 -47.5625 L 60.140625 0 L 50.765625 0 L 39 -35.203125 L 27.046875 0 L 17.59375 0 L 1.828125 -47.5625 L 11.015625 -47.5625 L 22.828125 -11.421875 L 35.125 -47.5625 L 43.28125 -47.5625 L 55.3125 -11.21875 L 67.484375 -47.5625 Z M 75.90625 -47.5625 "/></g></g></g><g fill="#909090" fill-opacity="1"><g transform="translate(523.808419, 314.065945)"><g><path d="M 37.234375 -11.015625 L 13.453125 -11.015625 L 8.765625 0 L -0.34375 0 L 21.0625 -47.5625 L 29.765625 -47.5625 L 51.234375 0 L 42 0 Z M 34.3125 -17.9375 L 25.34375 -38.734375 L 16.4375 -17.9375 Z M 34.3125 -17.9375 "/></g></g></g><g fill="#909090" fill-opacity="1"><g transform="translate(582.182565, 314.065945)"><g><path d="M 37.515625 0 L 27.796875 -13.9375 C 27.390625 -13.882812 26.773438 -13.859375 25.953125 -13.859375 L 15.21875 -13.859375 L 15.21875 0 L 6.390625 0 L 6.390625 -47.5625 L 25.953125 -47.5625 C 30.078125 -47.5625 33.664062 -46.878906 36.71875 -45.515625 C 39.78125 -44.160156 42.125 -42.210938 43.75 -39.671875 C 45.382812 -37.140625 46.203125 -34.128906 46.203125 -30.640625 C 46.203125 -27.066406 45.328125 -23.988281 43.578125 -21.40625 C 41.835938 -18.820312 39.335938 -16.894531 36.078125 -15.625 L 47.03125 0 Z M 37.3125 -30.640625 C 37.3125 -33.679688 36.3125 -36.015625 34.3125 -37.640625 C 32.320312 -39.273438 29.398438 -40.09375 25.546875 -40.09375 L 15.21875 -40.09375 L 15.21875 -21.140625 L 25.546875 -21.140625 C 29.398438 -21.140625 32.320312 -21.960938 34.3125 -23.609375 C 36.3125 -25.265625 37.3125 -27.609375 37.3125 -30.640625 Z M 37.3125 -30.640625 "/></g></g></g><g fill="#909090" fill-opacity="1"><g transform="translate(639.333529, 314.065945)"><g><path d="M 42.0625 -7.40625 L 42.0625 0 L 6.390625 0 L 6.390625 -47.5625 L 41.109375 -47.5625 L 41.109375 -40.15625 L 15.21875 -40.15625 L 15.21875 -27.796875 L 38.1875 -27.796875 L 38.1875 -20.515625 L 15.21875 -20.515625 L 15.21875 -7.40625 Z M 42.0625 -7.40625 "/></g></g></g></svg>